<?xml version="1.0" encoding="utf-8"?><!-- Uploaded to: SVG Repo, www.svgrepo.com, Generator: SVG Repo
Mixer Tools -->
<svg width="800px" height="800px" viewBox="0 0 24 24" fill="none" xmlns="http://www.w3.org/2000/svg">
    <path
        d="M9 5C9 4.44772 9.44772 4 10 4C10.5523 4 11 4.44772 11 5V9C11 10.1046 10.1046 11 9 11H5C4.44772 11 4 10.5523 4 10C4 9.44772 4.44772 9 5 9H7.58579L1.29289 2.70711C0.902369 2.31658 0.902369 1.68342 1.29289 1.29289C1.68342 0.902369 2.31658 0.902369 2.70711 1.29289L9 7.58578V5Z"
        fill="#0F0F0F" />
    <path
        d="M15 19C15 19.5523 14.5523 20 14 20C13.4477 20 13 19.5523 13 19V15C13 13.8954 13.8954 13 15 13H19C19.5523 13 20 13.4477 20 14C20 14.5523 19.5523 15 19 15H16.4142L22.7071 21.2929C23.0976 21.6834 23.0976 22.3166 22.7071 22.7071C22.3166 23.0976 21.6834 23.0976 21.2929 22.7071L15 16.4142V19Z"
        fill="#0F0F0F" />
</svg>